name C:\Users\u0101727\Documents\MyRepositories\upper-imu-dc\Results\main_tracking\Case_14\ABD01_linearAccelerations_groundFrame.mot
datacolumns 4
datarows 47
range 6.31000000 6.77000000
endheader 
time	radius_imu_x	radius_imu_y	radius_imu_z	
          6.31000000	          0.53805681	          9.79168784	         -0.24843850	
          6.32000000	          0.43440370	          9.75806165	         -0.24734610	
          6.33000000	          0.31903074	          9.71387185	         -0.23557389	
          6.34000000	          0.20070524	          9.66570953	         -0.21145285	
          6.35000000	          0.08537038	          9.62066819	         -0.17378597	
          6.36000000	         -0.02499274	          9.58487125	         -0.12284846	
          6.37000000	         -0.13234967	          9.56180212	         -0.06137640	
          6.38000000	         -0.24095643	          9.55124954	          0.00519633	
          6.39000000	         -0.35459174	          9.54946932	          0.06965883	
          6.40000000	         -0.47363732	          9.55109703	          0.12512239	
          6.41000000	         -0.59390895	          9.55215579	          0.16763874	
          6.42000000	         -0.70762752	          9.55197835	          0.19754458	
          6.43000000	         -0.80595582	          9.55302526	          0.21895169	
          6.44000000	         -0.88193799	          9.55890972	          0.23779054	
          6.45000000	         -0.93282788	          9.57198689	          0.25944955	
          6.46000000	         -0.96091560	          9.59182469	          0.28693962	
          6.47000000	         -0.97240658	          9.61515815	          0.32012445	
          6.48000000	         -0.97464192	          9.63720084	          0.35616657	
          6.49000000	         -0.97278198	          9.65373761	          0.39094528	
          6.50000000	         -0.96766565	          9.66310068	          0.42073449	
          6.51000000	         -0.95595993	          9.66703383	          0.44323724	
          6.52000000	         -0.93221922	          9.66990517	          0.45758266	
          6.53000000	         -0.89153273	          9.67657212	          0.46360798	
          6.54000000	         -0.83151361	          9.68993508	          0.46103045	
          6.55000000	         -0.75285478	          9.70949343	          0.44902815	
          6.56000000	         -0.65904211	          9.73059522	          0.42600050	
          6.57000000	         -0.55436274	          9.74754183	          0.39113618	
          6.58000000	         -0.44260208	          9.75575023	          0.34528645	
          6.59000000	         -0.32619463	          9.75377005	          0.29153180	
          6.60000000	         -0.20680132	          9.74387939	          0.23462312	
          6.61000000	         -0.08459838	          9.72684438	          0.17865781	
          6.62000000	          0.03886587	          9.71094998	          0.12976259	
          6.63000000	          0.16096483	          9.70413491	          0.09266233	
          6.64000000	          0.27961264	          9.70363177	          0.06697277	
          6.65000000	          0.39041290	          9.70950745	          0.05273476	
          6.66000000	          0.48846018	          9.72081156	          0.04984434	
          6.67000000	          0.56807753	          9.73521972	          0.05764668	
          6.68000000	          0.62352161	          9.74827662	          0.07417203	
          6.69000000	          0.65011295	          9.75330399	          0.09564787	
          6.70000000	          0.64548484	          9.74300349	          0.11720372	
          6.71000000	          0.61038143	          9.71268294	          0.13478157	
          6.72000000	          0.54881584	          9.66327356	          0.14709956	
          6.73000000	          0.46756011	          9.60182568	          0.15620810	
          6.74000000	          0.37485102	          9.53910431	          0.16637986	
          6.75000000	          0.27844805	          9.48612193	          0.18240772	
          6.76000000	          0.18385931	          9.45162638	          0.20841780	
          6.77000000	          0.09380045	          9.44116060	          0.24743305	
